<mxfile host="Electron" modified="2025-09-14T12:48:27.014Z" agent="Mozilla/5.0 (Windows NT 10.0; Win64; x64) AppleWebKit/537.36 (KHTML, like Gecko) draw.io/24.4.8 Chrome/124.0.6367.207 Electron/30.0.6 Safari/537.36" etag="GUo3EOX8ZIqXZkzWXJMy" version="24.4.8" type="device">
  <diagram name="Halaman-1" id="jHTh7UT-aRkNvtGrucr4">
    <mxGraphModel dx="2636" dy="1487" grid="1" gridSize="10" guides="1" tooltips="1" connect="1" arrows="1" fold="1" page="1" pageScale="1" pageWidth="1169" pageHeight="827" math="0" shadow="0">
      <root>
        <mxCell id="0" />
        <mxCell id="1" parent="0" />
        <mxCell id="oQzCL0i3XdUfxRr7Z9pi-3" value="" style="edgeStyle=orthogonalEdgeStyle;rounded=0;orthogonalLoop=1;jettySize=auto;html=1;" edge="1" parent="1" source="oQzCL0i3XdUfxRr7Z9pi-1" target="oQzCL0i3XdUfxRr7Z9pi-2">
          <mxGeometry relative="1" as="geometry" />
        </mxCell>
        <mxCell id="oQzCL0i3XdUfxRr7Z9pi-1" value="Mulai" style="ellipse;whiteSpace=wrap;html=1;" vertex="1" parent="1">
          <mxGeometry x="369" y="154" width="100" height="60" as="geometry" />
        </mxCell>
        <mxCell id="oQzCL0i3XdUfxRr7Z9pi-5" value="" style="edgeStyle=orthogonalEdgeStyle;rounded=0;orthogonalLoop=1;jettySize=auto;html=1;" edge="1" parent="1" source="oQzCL0i3XdUfxRr7Z9pi-2" target="oQzCL0i3XdUfxRr7Z9pi-4">
          <mxGeometry relative="1" as="geometry" />
        </mxCell>
        <mxCell id="oQzCL0i3XdUfxRr7Z9pi-2" value="Tampilkan Menu&lt;div&gt;1. Lihat Log&lt;/div&gt;&lt;div&gt;2. Tambah Log&lt;/div&gt;&lt;div&gt;3. Keluar&lt;/div&gt;" style="whiteSpace=wrap;html=1;" vertex="1" parent="1">
          <mxGeometry x="359" y="244" width="120" height="60" as="geometry" />
        </mxCell>
        <mxCell id="oQzCL0i3XdUfxRr7Z9pi-7" value="" style="edgeStyle=orthogonalEdgeStyle;rounded=0;orthogonalLoop=1;jettySize=auto;html=1;" edge="1" parent="1" source="oQzCL0i3XdUfxRr7Z9pi-4" target="oQzCL0i3XdUfxRr7Z9pi-6">
          <mxGeometry relative="1" as="geometry" />
        </mxCell>
        <mxCell id="oQzCL0i3XdUfxRr7Z9pi-4" value="Input Pilihan" style="shape=parallelogram;perimeter=parallelogramPerimeter;whiteSpace=wrap;html=1;fixedSize=1;" vertex="1" parent="1">
          <mxGeometry x="359" y="324" width="120" height="40" as="geometry" />
        </mxCell>
        <mxCell id="oQzCL0i3XdUfxRr7Z9pi-6" value="Pilihan=1?" style="rhombus;whiteSpace=wrap;html=1;" vertex="1" parent="1">
          <mxGeometry x="359" y="384" width="120" height="40" as="geometry" />
        </mxCell>
        <mxCell id="oQzCL0i3XdUfxRr7Z9pi-8" value="Cek travel_log kosong" style="rhombus;whiteSpace=wrap;html=1;" vertex="1" parent="1">
          <mxGeometry x="334" y="464" width="170" height="50" as="geometry" />
        </mxCell>
        <mxCell id="oQzCL0i3XdUfxRr7Z9pi-18" value="" style="endArrow=classic;html=1;rounded=0;exitX=0;exitY=0.5;exitDx=0;exitDy=0;entryX=0.5;entryY=0;entryDx=0;entryDy=0;" edge="1" parent="1" source="oQzCL0i3XdUfxRr7Z9pi-8" target="oQzCL0i3XdUfxRr7Z9pi-44">
          <mxGeometry relative="1" as="geometry">
            <mxPoint x="399" y="364" as="sourcePoint" />
            <mxPoint x="279" y="534" as="targetPoint" />
            <Array as="points">
              <mxPoint x="289" y="489" />
            </Array>
          </mxGeometry>
        </mxCell>
        <mxCell id="oQzCL0i3XdUfxRr7Z9pi-19" value="Ya" style="edgeLabel;resizable=0;html=1;;align=center;verticalAlign=middle;" connectable="0" vertex="1" parent="oQzCL0i3XdUfxRr7Z9pi-18">
          <mxGeometry relative="1" as="geometry">
            <mxPoint x="11" y="1" as="offset" />
          </mxGeometry>
        </mxCell>
        <mxCell id="oQzCL0i3XdUfxRr7Z9pi-21" value="" style="endArrow=classic;html=1;rounded=0;exitX=0.5;exitY=1;exitDx=0;exitDy=0;entryX=0.5;entryY=0;entryDx=0;entryDy=0;" edge="1" parent="1" source="oQzCL0i3XdUfxRr7Z9pi-8" target="oQzCL0i3XdUfxRr7Z9pi-49">
          <mxGeometry relative="1" as="geometry">
            <mxPoint x="399" y="364" as="sourcePoint" />
            <mxPoint x="419" y="574" as="targetPoint" />
          </mxGeometry>
        </mxCell>
        <mxCell id="oQzCL0i3XdUfxRr7Z9pi-25" value="Tidak" style="edgeLabel;html=1;align=center;verticalAlign=middle;resizable=0;points=[];" vertex="1" connectable="0" parent="oQzCL0i3XdUfxRr7Z9pi-21">
          <mxGeometry x="0.06" y="-7" relative="1" as="geometry">
            <mxPoint x="5" y="-6" as="offset" />
          </mxGeometry>
        </mxCell>
        <mxCell id="oQzCL0i3XdUfxRr7Z9pi-29" style="edgeStyle=orthogonalEdgeStyle;rounded=0;orthogonalLoop=1;jettySize=auto;html=1;exitX=0;exitY=0.5;exitDx=0;exitDy=0;" edge="1" parent="1" source="oQzCL0i3XdUfxRr7Z9pi-49">
          <mxGeometry relative="1" as="geometry">
            <mxPoint x="360.6000061035156" y="274" as="targetPoint" />
            <mxPoint x="219" y="584" as="sourcePoint" />
            <Array as="points">
              <mxPoint x="199" y="597" />
              <mxPoint x="199" y="274" />
            </Array>
          </mxGeometry>
        </mxCell>
        <mxCell id="oQzCL0i3XdUfxRr7Z9pi-30" style="edgeStyle=orthogonalEdgeStyle;rounded=0;orthogonalLoop=1;jettySize=auto;html=1;exitX=0;exitY=0.5;exitDx=0;exitDy=0;" edge="1" parent="1" source="oQzCL0i3XdUfxRr7Z9pi-44">
          <mxGeometry relative="1" as="geometry">
            <mxPoint x="359" y="274" as="targetPoint" />
            <mxPoint x="219" y="554" as="sourcePoint" />
            <Array as="points">
              <mxPoint x="199" y="549" />
              <mxPoint x="199" y="274" />
            </Array>
          </mxGeometry>
        </mxCell>
        <mxCell id="oQzCL0i3XdUfxRr7Z9pi-31" value="" style="endArrow=classic;html=1;rounded=0;exitX=0.5;exitY=1;exitDx=0;exitDy=0;entryX=0.5;entryY=0;entryDx=0;entryDy=0;" edge="1" parent="1" source="oQzCL0i3XdUfxRr7Z9pi-6" target="oQzCL0i3XdUfxRr7Z9pi-8">
          <mxGeometry relative="1" as="geometry">
            <mxPoint x="429" y="464" as="sourcePoint" />
            <mxPoint x="529" y="464" as="targetPoint" />
          </mxGeometry>
        </mxCell>
        <mxCell id="oQzCL0i3XdUfxRr7Z9pi-32" value="Ya" style="edgeLabel;resizable=0;html=1;;align=center;verticalAlign=middle;" connectable="0" vertex="1" parent="oQzCL0i3XdUfxRr7Z9pi-31">
          <mxGeometry relative="1" as="geometry" />
        </mxCell>
        <mxCell id="oQzCL0i3XdUfxRr7Z9pi-33" value="" style="endArrow=classic;html=1;rounded=0;exitX=1;exitY=0.5;exitDx=0;exitDy=0;entryX=0;entryY=0.5;entryDx=0;entryDy=0;" edge="1" parent="1" source="oQzCL0i3XdUfxRr7Z9pi-6" target="oQzCL0i3XdUfxRr7Z9pi-35">
          <mxGeometry relative="1" as="geometry">
            <mxPoint x="466" y="404" as="sourcePoint" />
            <mxPoint x="520" y="404" as="targetPoint" />
          </mxGeometry>
        </mxCell>
        <mxCell id="oQzCL0i3XdUfxRr7Z9pi-34" value="Tidak" style="edgeLabel;resizable=0;html=1;;align=center;verticalAlign=middle;" connectable="0" vertex="1" parent="oQzCL0i3XdUfxRr7Z9pi-33">
          <mxGeometry relative="1" as="geometry">
            <mxPoint x="-6" as="offset" />
          </mxGeometry>
        </mxCell>
        <mxCell id="oQzCL0i3XdUfxRr7Z9pi-54" value="" style="edgeStyle=orthogonalEdgeStyle;rounded=0;orthogonalLoop=1;jettySize=auto;html=1;" edge="1" parent="1" source="oQzCL0i3XdUfxRr7Z9pi-35" target="oQzCL0i3XdUfxRr7Z9pi-53">
          <mxGeometry relative="1" as="geometry" />
        </mxCell>
        <mxCell id="oQzCL0i3XdUfxRr7Z9pi-55" value="Tidak" style="edgeLabel;html=1;align=center;verticalAlign=middle;resizable=0;points=[];" vertex="1" connectable="0" parent="oQzCL0i3XdUfxRr7Z9pi-54">
          <mxGeometry x="-0.175" y="3" relative="1" as="geometry">
            <mxPoint as="offset" />
          </mxGeometry>
        </mxCell>
        <mxCell id="oQzCL0i3XdUfxRr7Z9pi-35" value="Pilihan=2?" style="rhombus;whiteSpace=wrap;html=1;" vertex="1" parent="1">
          <mxGeometry x="533" y="384" width="120" height="40" as="geometry" />
        </mxCell>
        <mxCell id="oQzCL0i3XdUfxRr7Z9pi-37" value="" style="endArrow=classic;html=1;rounded=0;exitX=0.5;exitY=1;exitDx=0;exitDy=0;entryX=0.5;entryY=0;entryDx=0;entryDy=0;" edge="1" parent="1" source="oQzCL0i3XdUfxRr7Z9pi-35" target="oQzCL0i3XdUfxRr7Z9pi-40">
          <mxGeometry relative="1" as="geometry">
            <mxPoint x="439" y="434" as="sourcePoint" />
            <mxPoint x="593" y="474" as="targetPoint" />
          </mxGeometry>
        </mxCell>
        <mxCell id="oQzCL0i3XdUfxRr7Z9pi-38" value="Ya" style="edgeLabel;resizable=0;html=1;;align=center;verticalAlign=middle;" connectable="0" vertex="1" parent="oQzCL0i3XdUfxRr7Z9pi-37">
          <mxGeometry relative="1" as="geometry" />
        </mxCell>
        <mxCell id="oQzCL0i3XdUfxRr7Z9pi-51" value="" style="edgeStyle=orthogonalEdgeStyle;rounded=0;orthogonalLoop=1;jettySize=auto;html=1;" edge="1" parent="1" source="oQzCL0i3XdUfxRr7Z9pi-40" target="oQzCL0i3XdUfxRr7Z9pi-50">
          <mxGeometry relative="1" as="geometry" />
        </mxCell>
        <mxCell id="oQzCL0i3XdUfxRr7Z9pi-40" value="Input&lt;div&gt;Destinasi, Tanggal, Catatan&lt;/div&gt;" style="shape=parallelogram;perimeter=parallelogramPerimeter;whiteSpace=wrap;html=1;fixedSize=1;" vertex="1" parent="1">
          <mxGeometry x="525" y="464" width="136" height="50" as="geometry" />
        </mxCell>
        <mxCell id="oQzCL0i3XdUfxRr7Z9pi-44" value="Cetak Belum ada data" style="shape=parallelogram;perimeter=parallelogramPerimeter;whiteSpace=wrap;html=1;fixedSize=1;" vertex="1" parent="1">
          <mxGeometry x="229" y="524" width="120" height="50" as="geometry" />
        </mxCell>
        <mxCell id="oQzCL0i3XdUfxRr7Z9pi-45" style="edgeStyle=orthogonalEdgeStyle;rounded=0;orthogonalLoop=1;jettySize=auto;html=1;exitX=0.5;exitY=1;exitDx=0;exitDy=0;" edge="1" parent="1" source="oQzCL0i3XdUfxRr7Z9pi-44" target="oQzCL0i3XdUfxRr7Z9pi-44">
          <mxGeometry relative="1" as="geometry" />
        </mxCell>
        <mxCell id="oQzCL0i3XdUfxRr7Z9pi-49" value="Tampilkan daftar log" style="shape=parallelogram;perimeter=parallelogramPerimeter;whiteSpace=wrap;html=1;fixedSize=1;" vertex="1" parent="1">
          <mxGeometry x="349" y="577" width="140" height="40" as="geometry" />
        </mxCell>
        <mxCell id="oQzCL0i3XdUfxRr7Z9pi-52" style="edgeStyle=orthogonalEdgeStyle;rounded=0;orthogonalLoop=1;jettySize=auto;html=1;entryX=0;entryY=0.5;entryDx=0;entryDy=0;" edge="1" parent="1" source="oQzCL0i3XdUfxRr7Z9pi-50" target="oQzCL0i3XdUfxRr7Z9pi-2">
          <mxGeometry relative="1" as="geometry">
            <Array as="points">
              <mxPoint x="593" y="644" />
              <mxPoint x="199" y="644" />
              <mxPoint x="199" y="274" />
            </Array>
          </mxGeometry>
        </mxCell>
        <mxCell id="oQzCL0i3XdUfxRr7Z9pi-50" value="Tambahkan ke traver log" style="whiteSpace=wrap;html=1;" vertex="1" parent="1">
          <mxGeometry x="533" y="544" width="120" height="40" as="geometry" />
        </mxCell>
        <mxCell id="oQzCL0i3XdUfxRr7Z9pi-57" value="" style="edgeStyle=orthogonalEdgeStyle;rounded=0;orthogonalLoop=1;jettySize=auto;html=1;" edge="1" parent="1" source="oQzCL0i3XdUfxRr7Z9pi-53" target="oQzCL0i3XdUfxRr7Z9pi-56">
          <mxGeometry relative="1" as="geometry" />
        </mxCell>
        <mxCell id="oQzCL0i3XdUfxRr7Z9pi-64" value="Ya" style="edgeLabel;html=1;align=center;verticalAlign=middle;resizable=0;points=[];" vertex="1" connectable="0" parent="oQzCL0i3XdUfxRr7Z9pi-57">
          <mxGeometry x="-0.1643" y="-1" relative="1" as="geometry">
            <mxPoint y="1" as="offset" />
          </mxGeometry>
        </mxCell>
        <mxCell id="oQzCL0i3XdUfxRr7Z9pi-59" value="" style="edgeStyle=orthogonalEdgeStyle;rounded=0;orthogonalLoop=1;jettySize=auto;html=1;" edge="1" parent="1" source="oQzCL0i3XdUfxRr7Z9pi-53" target="oQzCL0i3XdUfxRr7Z9pi-58">
          <mxGeometry relative="1" as="geometry" />
        </mxCell>
        <mxCell id="oQzCL0i3XdUfxRr7Z9pi-60" value="Tidak" style="edgeLabel;html=1;align=center;verticalAlign=middle;resizable=0;points=[];" vertex="1" connectable="0" parent="oQzCL0i3XdUfxRr7Z9pi-59">
          <mxGeometry x="-0.0877" y="2" relative="1" as="geometry">
            <mxPoint as="offset" />
          </mxGeometry>
        </mxCell>
        <mxCell id="oQzCL0i3XdUfxRr7Z9pi-53" value="Pilihan=3?" style="rhombus;whiteSpace=wrap;html=1;" vertex="1" parent="1">
          <mxGeometry x="709" y="384" width="120" height="40" as="geometry" />
        </mxCell>
        <mxCell id="oQzCL0i3XdUfxRr7Z9pi-63" value="" style="edgeStyle=orthogonalEdgeStyle;rounded=0;orthogonalLoop=1;jettySize=auto;html=1;" edge="1" parent="1" source="oQzCL0i3XdUfxRr7Z9pi-56" target="oQzCL0i3XdUfxRr7Z9pi-62">
          <mxGeometry relative="1" as="geometry" />
        </mxCell>
        <mxCell id="oQzCL0i3XdUfxRr7Z9pi-56" value="Cetak Terima kasih program selesai" style="shape=parallelogram;perimeter=parallelogramPerimeter;whiteSpace=wrap;html=1;fixedSize=1;" vertex="1" parent="1">
          <mxGeometry x="674" y="494" width="190" height="50" as="geometry" />
        </mxCell>
        <mxCell id="oQzCL0i3XdUfxRr7Z9pi-61" style="edgeStyle=orthogonalEdgeStyle;rounded=0;orthogonalLoop=1;jettySize=auto;html=1;entryX=1;entryY=0.5;entryDx=0;entryDy=0;" edge="1" parent="1" source="oQzCL0i3XdUfxRr7Z9pi-58" target="oQzCL0i3XdUfxRr7Z9pi-2">
          <mxGeometry relative="1" as="geometry">
            <Array as="points">
              <mxPoint x="954" y="274" />
            </Array>
          </mxGeometry>
        </mxCell>
        <mxCell id="oQzCL0i3XdUfxRr7Z9pi-58" value="Pilihan tidak valid" style="shape=parallelogram;perimeter=parallelogramPerimeter;whiteSpace=wrap;html=1;fixedSize=1;" vertex="1" parent="1">
          <mxGeometry x="889" y="384" width="130" height="40" as="geometry" />
        </mxCell>
        <mxCell id="oQzCL0i3XdUfxRr7Z9pi-62" value="Selesai" style="ellipse;whiteSpace=wrap;html=1;" vertex="1" parent="1">
          <mxGeometry x="709" y="577" width="120" height="45" as="geometry" />
        </mxCell>
      </root>
    </mxGraphModel>
  </diagram>
</mxfile>
